<?xml version="1.0" encoding="utf-8"?>
<!-- Svg Vector Icons : http://www.onlinewebfonts.com/icon -->
<!DOCTYPE svg PUBLIC "-//W3C//DTD SVG 1.1//EN" "http://www.w3.org/Graphics/SVG/1.1/DTD/svg11.dtd">
<svg version="1.1" xmlns="http://www.w3.org/2000/svg" xmlns:xlink="http://www.w3.org/1999/xlink" x="0px" y="0px" viewBox="0 0 1000 1000" enable-background="new 0 0 1000 1000" xml:space="preserve">
<metadata> Svg Vector Icons : http://www.onlinewebfonts.com/icon </metadata>
<g><g transform="translate(0.000000,511.000000) scale(0.100000,-0.100000)"><path d="M4849.6,5000.5c-367.9-24.5-995.3-134.9-1573.6-275.9c-392.4-96-435.3-110.4-494.6-171.7c-55.2-53.1-67.4-81.7-67.4-151.2s12.3-98.1,69.5-155.3c87.9-87.9,147.1-89.9,449.6-10.2c327,87.9,856.3,198.2,1197.6,249.3c414.9,63.4,1001.4,67.4,1162.8,8.2c143.1-53.1,163.5-85.8,124.7-198.2c-26.6-77.7-55.2-104.2-251.4-233c-122.6-81.7-263.6-186-314.7-235c-259.5-251.4-386.3-602.9-406.7-1132.2c-10.2-241.1-8.2-271.8,30.7-331.1c59.3-96,175.8-126.7,282.1-75.6c112.4,55.2,149.2,141,149.2,359.7c0,335.2,87.9,641.7,226.8,801.1c45,51.1,161.5,141,259.6,200.3c298.4,179.8,437.4,351.5,496.6,621.3c47,208.4-34.7,410.8-222.8,553.8C5771.3,4974,5370.8,5035.3,4849.6,5000.5z"/><path d="M2806,2540c-709.2-102.2-1352.9-566.1-1686-1216C921.7,935.7,844.1,512.6,517.1-1984.7C263.7-3940.5,271.8-3860.8,296.4-4012c67.4-394.4,374-696.9,776.6-766.4c265.7-45,562,45,764.3,233c53.1,49,390.3,410.8,750,803.2c357.7,394.4,725.5,776.6,815.4,852.2c345.4,290.2,658.1,447.6,1040.2,525.2c570.2,116.5,1175.1,59.2,1612.5-151.3c363.8-173.7,623.3-410.8,1451-1318.2c292.2-320.9,578.3-629.4,637.6-686.7c206.4-206.4,510.9-304.5,788.9-257.5c408.7,71.5,719.4,384.2,774.5,784.8c20.4,136.9,8.2,251.4-134.9,1365.2C9294.6-478.5,9127,651.6,9047.3,917.3c-239.1,799.1-854.3,1385.6-1667.6,1587.9c-261.6,65.4-756.2,65.4-1013.7,0c-504.8-126.7-958.5-410.8-1240.5-776.6c-61.3-79.7-118.5-145.1-124.7-145.1c-6.1-2.1-40.9,38.8-77.7,89.9c-36.8,51.1-124.7,151.2-196.2,222.8C4222.2,2401,3506.9,2640.1,2806,2540z M6991.4,1415.9c96.1-26.6,222.8-136.9,269.8-237.1c55.2-114.4,34.7-308.6-40.9-418.9c-181.9-255.5-570.2-233-721.4,40.9c-57.2,100.1-63.4,267.7-18.4,374c59.3,136.9,239.1,259.5,382.2,263.6C6891.3,1438.4,6948.5,1428.2,6991.4,1415.9z M3368,927.5V498.3h429.2h429.2V253.1V7.9h-429.2H3368v-418.9V-830h-235h-235v418.9V7.9h-429.2h-429.2v245.2v245.2h429.2h429.2v429.2v429.2h235h235V927.5z M6300.6,643.4c151.2-67.4,255.5-233,255.5-400.6c0-69.5-65.4-224.8-118.5-284.1c-47-53.1-226.9-134.9-298.4-134.9c-233,0-439.4,198.2-441.4,425.1C5695.7,557.6,6022.7,770.1,6300.6,643.4z M7778.2,649.6c286.1-118.5,357.6-472.1,141-690.7c-141-139-300.4-167.6-476.2-85.8c-208.5,98.1-306.6,335.2-220.7,539.5C7312.3,631.2,7565.7,739.5,7778.2,649.6z M7056.8-110.7c263.6-128.7,320.9-496.6,108.3-692.8c-196.2-183.9-543.6-126.7-666.2,106.3c-94,181.9-67.4,357.7,77.6,502.8C6715.5-55.5,6887.2-24.8,7056.8-110.7z"/></g></g>
</svg>